<?xml version="1.0" standalone="no"?><!DOCTYPE svg PUBLIC "-//W3C//DTD SVG 1.1//EN" "http://www.w3.org/Graphics/SVG/1.1/DTD/svg11.dtd"><svg class="icon" width="200px" height="200.00px" viewBox="0 0 1024 1024" version="1.1" xmlns="http://www.w3.org/2000/svg"><path d="M1008.246154 433.230769L882.215385 55.138462c-7.876923-31.507692-39.384615-55.138462-70.892308-55.138462H212.676923c-31.507692 0-63.015385 23.630769-70.892308 55.138462L15.753846 433.230769c-7.876923 7.876923-15.753846 23.630769-15.753846 39.384616v433.230769c0 63.015385 55.138462 118.153846 118.153846 118.153846h787.692308c63.015385 0 118.153846-55.138462 118.153846-118.153846V472.615385c0-15.753846-7.876923-31.507692-15.753846-39.384616zM212.676923 78.769231h598.646154l102.4 315.076923H693.169231l-39.384616-173.292308c-7.876923-39.384615-39.384615-63.015385-70.892307-63.015384H441.107692c-39.384615 0-70.892308 23.630769-78.76923 63.015384L330.830769 393.846154H110.276923l102.4-315.076923zM393.846154 472.615385h236.307692v157.538461H393.846154V472.615385z m15.753846-78.769231l31.507692-157.538462h133.907693l31.507692 157.538462H409.6z m535.630769 512c0 23.630769-15.753846 39.384615-39.384615 39.384615h-787.692308c-23.630769 0-39.384615-15.753846-39.384615-39.384615V472.615385h236.307692v157.538461c0 47.261538 31.507692 78.769231 78.769231 78.769231h236.307692c47.261538 0 78.769231-31.507692 78.769231-78.769231V472.615385h236.307692v433.230769z" /></svg>