<?xml version="1.0" standalone="no"?><!DOCTYPE svg PUBLIC "-//W3C//DTD SVG 1.1//EN" "http://www.w3.org/Graphics/SVG/1.1/DTD/svg11.dtd"><svg class="icon" width="200px" height="200.00px" viewBox="0 0 1024 1024" version="1.1" xmlns="http://www.w3.org/2000/svg"><path d="M512 1004.8c-25.6 0-57.6-6.4-83.2-19.2l-288-166.4c-44.8-32-76.8-83.2-76.8-140.8V345.6c0-57.6 32-108.8 83.2-140.8L435.2 38.4C486.4 12.8 544 12.8 595.2 38.4l288 166.4c44.8 32 76.8 83.2 76.8 140.8v332.8c0 57.6-32 108.8-83.2 140.8l-288 166.4c-19.2 12.8-51.2 19.2-76.8 19.2zM512 83.2c-19.2 0-32 6.4-51.2 12.8L179.2 262.4c-32 19.2-51.2 51.2-51.2 83.2v332.8c0 32 19.2 64 51.2 83.2l288 166.4c32 19.2 64 19.2 96 0l288-166.4c32-19.2 51.2-51.2 51.2-83.2V345.6c0-32-19.2-64-51.2-83.2L563.2 96c-19.2-6.4-32-12.8-51.2-12.8zM512 704c-108.8 0-192-83.2-192-192s83.2-192 192-192 192 83.2 192 192-83.2 192-192 192z m0-320c-70.4 0-128 57.6-128 128s57.6 128 128 128 128-57.6 128-128-57.6-128-128-128z" /></svg>