<?xml version="1.0" standalone="no"?><!DOCTYPE svg PUBLIC "-//W3C//DTD SVG 1.1//EN" "http://www.w3.org/Graphics/SVG/1.1/DTD/svg11.dtd"><svg t="1657984496627" class="icon" viewBox="0 0 1024 1024" version="1.1" xmlns="http://www.w3.org/2000/svg" p-id="4997" xmlns:xlink="http://www.w3.org/1999/xlink" width="200" height="200"><defs><style type="text/css">@font-face { font-family: feedback-iconfont; src: url("//at.alicdn.com/t/font_1031158_u69w8yhxdu.woff2?t=1630033759944") format("woff2"), url("//at.alicdn.com/t/font_1031158_u69w8yhxdu.woff?t=1630033759944") format("woff"), url("//at.alicdn.com/t/font_1031158_u69w8yhxdu.ttf?t=1630033759944") format("truetype"); }
</style></defs><path d="M373.33 550.223h179.19v35.838H373.33v-35.838z m0 126.487h250.867v35.839H373.33V676.71z m0-251.922h250.867v35.838H373.33v-35.838z m435.788 533.274H218.354c-30.12 0-53.783-25.36-53.783-55.48l-0.84-787.11c0-30.14 23.66-53.781 53.783-53.781h416.814a54.678 54.678 0 0 1 35.289 12.927L844.79 253.28c11.069 9.269 17.273 25.335 17.273 41.42l0.844 609.58c-0.002 30.147-23.668 53.782-53.789 53.782zM217.513 97.54c-10.347 0-18.767 8.425-18.767 18.769l0.84 787.113c0 10.364 8.42 18.785 18.767 18.785h590.764c10.35 0 18.768-8.421 18.768-18.768l-0.837-609.577a18.765 18.765 0 0 0-6.651-14.358l-175.173-178.66c-2.161-1.728-6.459-3.302-10.897-3.302H217.513v-0.001z m621.713 201.814H624.197V84.323h35.84v179.194h179.189v35.836z" p-id="4998"></path></svg>