<svg t="1686293854047" class="icon" viewBox="0 0 1027 1024" version="1.1" xmlns="http://www.w3.org/2000/svg" p-id="18124" width="200" height="200"><path d="M828.762646 921.201556c-14.244358 0-24.205447-2.291051-29.883269-6.873151-5.677821-4.582101-8.666148-13.148638-8.666147-25.500389 0-4.980545 0.896498-12.451362 2.689494-22.014008 1.593774-8.765759 3.585992-17.332296 5.976653-25.898833l27.392997-94.032685c2.789105-9.263813 4.681712-18.826459 5.57821-28.488716 0.996109-10.359533 1.494163-17.631128 1.494163-21.615564 0-19.822568-7.072374-35.959533-21.515953-48.410895s-34.764202-18.627237-61.16109-18.627237c-14.642802 0-30.08249 2.589883-46.717509 7.570428s-33.768093 11.256031-51.598444 18.228794l-7.371206 29.185992c5.279377-1.992218 11.654475-3.984436 19.224902-6.275487 7.072374-2.091829 14.44358-3.187549 21.914397-3.187548 14.543191 0 24.205447 2.390661 29.285603 7.072373 5.080156 4.681712 7.670039 13.248249 7.670039 25.201557-0.099611 7.470817-0.896498 14.941634-2.589883 22.213229-1.693385 8.068482-3.685603 16.635019-6.076264 25.699611l-27.392997 94.53074c-2.19144 8.86537-3.984436 17.730739-5.279377 26.79533-1.09572 7.670039-1.693385 15.439689-1.693385 23.209339 0 19.324514 7.371206 35.461479 22.213229 48.112062 14.842023 12.650584 35.262257 18.826459 61.858366 18.826459 17.332296 0 32.473152-2.291051 45.522179-6.67393 13.148638-4.382879 30.580545-10.757977 52.594553-19.224902l7.271595-29.285604c-5.976654 2.490272-12.052918 4.48249-18.328405 5.976654-7.271595 2.19144-14.842023 3.38677-22.412451 3.486381zM745.886381 516.880934c0 16.336187 6.375097 30.281712 19.324514 41.836576s28.289494 17.332296 46.219455 17.332295 33.270039-5.877043 46.119845-17.332295c12.750195-11.455253 19.025681-25.500389 19.02568-41.836576s-6.474708-30.480934-19.02568-42.135409C844.700389 463.091051 829.2607 457.214008 811.43035 457.214008c-17.929961 0-33.469261 5.877043-46.219455 17.531517s-19.324514 25.6-19.324514 42.135409z" p-id="18125" fill="#bfbfbf"></path><path d="M934.250584 224.423346l-0.298833-0.697276c-0.099611-0.199222-0.298833-0.398444-0.398444-0.597665l-2.29105-5.080156c-0.099611 0.099611-0.398444 0.298833-0.996109 0.498055 0 0-0.099611 0-0.099611 0.09961C844.301946 97.419455 707.038132 15.140856 550.150973 3.585992c15.041245 2.888716 29.783658 7.470817 44.028015 13.547082-14.244358-6.076265-28.98677-10.558755-43.928404-13.447471-12.550973-0.896498-25.301167-1.394553-38.150973-1.394552s-25.500389 0.498054-38.150973 1.394552c-18.129183 3.38677-35.859922 9.263813-52.893385 17.332296 17.033463-8.068482 34.664591-13.945525 52.793774-17.332296C209.182879 23.109728 0 244.046693 0 513.09572c0 281.898833 229.503502 510.90428 512 510.90428 66.838911 0 130.689494-12.849805 189.161089-36.059144-7.670039-3.785214-14.742412-8.466926-21.117509-13.845914-5.378988-4.681712-10.259922-9.761868-14.343969-15.041246-0.498054-0.697276-1.09572-1.394553-1.593774-1.992217-10.160311 3.38677-20.420233 6.474708-30.779767 9.263813 10.359533-2.789105 20.619455-5.877043 30.779767-9.363424-8.566537-11.654475-14.244358-24.803113-16.834242-39.047471-33.270039 31.775875-70.922957 52.29572-110.966537 58.172763v-0.099611c-3.984436 0.597665-8.068482 0.996109-12.152529 1.294941 4.084047-0.298833 8.068482-0.796887 12.152529-1.294941V733.833463c20.519844 0.398444 40.541634 1.394553 59.965759 2.789105l11.455253-45.322957c-23.010117-1.693385-46.817121-2.888716-71.421012-3.28716-14.44358-0.298833-29.185992-0.298833-44.127626 0v288.572763c-90.446693-10.957198-168.940078-95.825681-214.362646-219.044358-14.045136 2.888716-28.289494 6.175875-42.533852 9.761868 28.389105 77.696498 69.129961 142.543191 118.138521 187.268482-86.263035-31.078599-160.871595-86.761089-215.159533-158.580545h-0.099611c-9.263813-12.25214-17.929961-24.902724-25.898832-38.051361-9.363424 3.38677-18.92607 6.873152-28.389105 10.658365v-0.099611c9.463035-3.685603 19.025681-7.271595 28.389105-10.658365-40.342412-66.042023-64.747082-142.742412-67.83502-224.921401H192.249027c1.792996 68.133852 12.052918 132.880934 28.986771 191.551751 14.244358-3.585992 28.389105-6.972763 42.434241-9.96109-15.838132-55.284047-25.400778-116.743969-27.193774-181.590661h-0.099611c-0.099611-7.271595-0.199222-14.642802-0.199222-22.014008 0 7.371206 0.099611 14.742412 0.298833 22.014008h255.701167v155.094163c14.941634-0.298833 29.684047-0.298833 44.127626-0.099611V532.918288h176.709728c-0.996109-5.378988-1.494163-10.857588-1.494163-16.535409 0-9.562646 1.394553-18.826459 4.183657-27.492607H536.205447V341.167315c86.462257-1.195331 163.361868-11.554864 226.614786-24.603891-3.785214-13.746304-7.968872-27.193774-12.451361-40.242801 4.582101 13.049027 8.666148 26.396887 12.451361 40.242801 14.941634-3.087938 29.185992-6.275486 42.533853-9.662257-4.183658-15.240467-8.765759-29.883268-13.845915-44.326848h0.099611c5.080156 14.343969 9.662257 29.185992 13.845914 44.426459 45.920623-11.355642 82.37821-23.40856 106.982102-32.871595 38.449805 63.352529 62.157198 136.466926 66.540077 214.761089h0.199222c0.498054 8.765759 0.796887 17.531518 0.796887 26.396888-0.099611 5.877043-0.199222 11.754086-0.398443 17.631128h-0.099611c0.199222-5.877043 0.298833-11.754086 0.298833-17.631128 0-8.86537-0.298833-17.631128-0.796888-26.396888h-71.3214c2.888716 8.765759 4.283268 17.929961 4.283268 27.492607 0 5.677821-0.498054 11.15642-1.494163 16.535409h68.930739c-2.988327 80.884047-26.69572 156.389105-65.743191 221.634241-13.049027-4.781323-29.584436-10.359533-49.108171-16.236576-1.09572 6.175875-2.589883 12.152529-4.382879 18.029572l-7.76965 26.69572c13.148638 3.984436 24.703502 7.76965 34.664591 11.15642 9.562646-12.750195 18.428016-25.799222 26.496499-39.545525-8.168093 13.646693-17.033463 26.894942-26.596109 39.645136h0.09961c-16.834241 22.412451-35.561089 43.231128-55.981323 62.25681-1.294942 5.179767-2.490272 10.558755-3.38677 15.838132l-0.099611 0.498054c-1.195331 6.375097-1.693385 10.459144-1.892607 12.849806 0.996109 0 2.091829 0.099611 3.386771 0.099611 4.183658-0.099611 8.367315-0.697276 12.351751-1.992218l0.996109-0.298833 0.996108-0.199222c4.582101-1.09572 9.064591-2.589883 13.34786-4.382879l21.217121-8.765759c18.328405-18.726848 35.162646-38.748638 50.502724-60.065369 0.298833 0.099611 0.498054 0.199222 0.498054 0.298832l1.693385-3.585992c58.670817-83.175097 93.235798-184.479377 93.235798-293.752529 0.099611-107.081712-32.971206-206.493385-89.649805-288.672374zM492.277043 976.585214c6.574319 0.796887 13.049027 1.195331 19.722957 1.195331-6.67393 0-13.248249-0.398444-19.722957-1.195331z m44.028015 23.209339h-44.127626 44.127626z m-44.127626-18.029572c-10.359533-0.398444-20.619455-1.195331-30.779767-2.291051 10.160311 1.09572 20.420233 1.892607 30.779767 2.291051z m-120.130739-20.918288c-6.175875-1.892607-12.351751-3.984436-18.428016-6.175876l-0.099611-0.099611c6.076265 2.291051 12.25214 4.382879 18.527627 6.275487zM512 44.028016z m400.535409 230.101167c-8.068482-13.34786-16.834241-26.197665-26.197666-38.649027-23.40856 7.968872-55.483268 17.730739-94.63035 27.094163C766.007782 189.2607 729.450584 127.103502 685.422568 81.680934 645.677821 65.743191 603.143969 55.184436 558.817121 50.801556c80.784436 23.40856 149.515953 106.185214 190.157198 220.936965h-0.199222v0.099611c-59.766537 11.853696-131.785214 21.316732-212.470039 22.810895V49.108171c-8.068482-0.398444-16.136965-0.597665-24.305058-0.597665-6.67393 0-13.248249 0.099611-19.822568 0.398443v245.740078c14.941634 0.298833 29.584436 0.298833 44.028015 0v0.099611c-14.44358 0.298833-29.086381 0.298833-44.028015 0v-0.099611c-67.635798-1.294942-140.351751-8.466926-216.454475-24.603891-4.980545 14.045136-9.662257 28.588327-13.746303 43.629572 81.182879 17.929961 158.480934 25.799222 230.101167 27.392996v147.822568H236.476265c1.693385-62.456031 10.658366-121.624903 25.500389-175.315175-14.045136-3.087938-28.189883-6.474708-42.334631-10.160311-15.937743 57.077043-25.500389 119.732296-27.293385 185.475486h-147.424124v0H24.305058v-0.099611h20.619456c4.48249-79.788327 29.086381-154.197665 68.831128-218.446692 35.859922 13.049027 71.122179 24.006226 105.78677 33.070817 4.183658-14.842023 8.765759-29.285603 13.646693-43.330739-30.680156-7.76965-61.758755-17.033463-93.136187-27.891051-4.681712 6.175875-9.263813 12.351751-13.646692 18.726848 4.382879-6.375097 8.964981-12.650584 13.547081-18.726848-12.750195-4.48249-25.6-9.164202-38.549416-14.144747l-15.439689 41.736965 15.439689-41.836576c12.949416 4.980545 25.799222 9.761868 38.549416 14.144747 51.000778-66.440467 119.433463-118.935409 198.524514-150.412451-43.529961 44.924514-79.788327 106.284825-105.288716 178.502724-4.980545 14.045136-9.562646 28.488716-13.646693 43.231128 14.244358 3.685603 28.389105 7.072374 42.334631 10.160311 4.084047-14.941634 8.666148-29.484825 13.746303-43.529961C316.364202 156.189883 384.796887 74.110506 465.182879 50.801556c0.199222-0.099611 0.398444-0.099611 0.498055-0.09961 8.765759-0.896498 17.531518-1.494163 26.496498-1.892607 6.574319-0.199222 13.148638-0.398444 19.822568-0.398444 8.168093 0 16.136965 0.199222 24.205447 0.597665 7.670039 0.398444 15.140856 0.996109 22.611674 1.792996-7.470817-2.19144-14.842023-3.785214-22.512063-4.980544 7.570428 1.09572 15.140856 2.789105 22.611674 4.980544 44.227237 4.382879 86.661479 14.941634 126.406225 30.779767l0.099611 0.099611c80.385992 32.074708 149.715175 85.764981 200.915175 153.799222h0.099611c9.263813 12.351751 18.029572 25.301167 26.098055 38.649027 21.715175-8.367315 34.365759-14.642802 36.357976-16.435798-1.693385 1.693385-14.343969 7.968872-36.357976 16.435798z m36.258365 494.368871c-0.597665-0.298833-1.792996-0.796887-3.486381-1.494163 1.693385 0.697276 2.888716 1.294942 3.486381 1.494163z" p-id="18126" fill="#bfbfbf"></path><path d="M811.928405 421.85214c5.179767 0 10.259922 0.398444 15.340077 1.09572-4.382879-40.442023-11.853696-79.389883-21.814786-115.947082-13.34786 3.28716-27.592218 6.574319-42.533852 9.662257 9.263813 34.266148 16.136965 70.823346 20.320623 108.974319 9.164202-2.490272 18.726848-3.785214 28.687938-3.785214zM473.849027 3.585992c12.550973-0.896498 25.301167-1.394553 38.150973-1.394552 12.849805 0 25.500389 0.498054 38.150973 1.394552C537.6 1.195331 524.849805 0 512 0s-25.6 1.195331-38.150973 3.585992zM264.765759 717.796109c-0.298833-1.09572-0.697276-2.19144-0.996109-3.28716-14.045136 3.087938-28.189883 6.375097-42.434241 9.96109-35.760311 9.064591-72.118288 20.121401-108.97432 33.469261 8.068482 13.148638 16.73463 25.898833 25.998444 38.150972 32.771984-11.355642 65.045914-20.918288 96.921401-28.887159 14.244358-3.585992 28.488716-6.773541 42.533852-9.761868-1.294942-3.486381-2.490272-6.972763-3.785214-10.459144 1.195331 3.486381 2.490272 6.972763 3.785214 10.459144 75.405447-15.738521 147.424125-22.611673 214.362646-23.707393v-45.721401c-71.122179 1.394553-147.922179 9.164202-228.407782 26.496498 0.298833 1.09572 0.697276 2.19144 0.996109 3.28716z" p-id="18127" fill="#bfbfbf"></path></svg>