<svg t="1678779090802" class="icon" viewBox="0 0 1041 1024" version="1.1" xmlns="http://www.w3.org/2000/svg" p-id="4461" width="200" height="200"><path d="M521.381573 963.635989H107.29703c-25.88107 0-46.933019-19.064967-46.933019-42.506325V102.85776C60.364011 79.428978 81.415961 60.364011 107.29703 60.364011h671.889176c25.88107 0 46.933019 19.064967 46.933019 42.493749v315.137868a30.182006 30.182006 0 0 0 60.364011 0V102.85776c0-56.717019-48.140299-102.85776-107.29703-102.85776H107.29703C48.190603 0 0 46.140741 0 102.85776v818.271904c0 56.717019 48.140299 102.870336 107.29703 102.870336h414.084543a30.182006 30.182006 0 0 0 0-60.364011z" fill="#707070" p-id="4462"></path><path d="M579.519662 483.389974a30.182006 30.182006 0 0 0-30.182006-30.182006H175.219119a30.182006 30.182006 0 0 0 0 60.364011h374.118537a30.182006 30.182006 0 0 0 30.182006-30.182005zM734.303048 255.465527a30.182006 30.182006 0 0 0-30.182006-30.182006H175.219119a30.182006 30.182006 0 0 0 0 60.364012H704.121042a30.182006 30.182006 0 0 0 30.182006-30.182006zM182.098101 672.643726a30.182006 30.182006 0 0 0 0 60.364011h231.319923a30.182006 30.182006 0 1 0 0-60.364011z m850.088768 296.299265l-62.627662-62.627662a256.547049 256.547049 0 0 0 55.622922-159.713113c0-142.106944-115.622234-257.804632-257.804633-257.804633s-257.804632 115.697689-257.804632 257.804633 115.622234 257.804632 257.804632 257.804632a256.547049 256.547049 0 0 0 159.42387-55.333677l62.640237 62.652813a30.207157 30.207157 0 1 0 42.757842-42.682386z m-264.75907-24.988185c-108.831282 0-197.440621-88.546459-197.44062-197.440621s88.546459-197.440621 197.44062-197.440621 197.440621 88.546459 197.440621 197.440621-88.596763 197.440621-197.440621 197.440621z" fill="#707070" p-id="4463"></path></svg>